<svg xmlns="http://www.w3.org/2000/svg" width="158.9" height="50.004" viewBox="0 0 158.9 50.004">
  <g id="ketchup" transform="translate(-207.197 -397.754)" style="isolation: isolate">
    <g id="Group_612" data-name="Group 612" style="isolation: isolate">
      <path id="Path_1655" data-name="Path 1655" d="M207.2,398.7a.984.984,0,0,1,.95-.951h5.55a.984.984,0,0,1,.95.951v21.651l6.051-7a1.668,1.668,0,0,1,1.25-.6h5.6a.925.925,0,0,1,.75,1.55l-6.6,7.651,8,9.3a.9.9,0,0,1-.75,1.5H222.2a1.236,1.236,0,0,1-.75-.4l-6.8-8.7v8.151a.983.983,0,0,1-.95.95h-5.55a.983.983,0,0,1-.95-.95Z" fill="#c7c7d2"/>
      <path id="Path_1656" data-name="Path 1656" d="M241.247,412.255a9.348,9.348,0,0,1,9.5,9.4,12.023,12.023,0,0,1-.1,1.35.966.966,0,0,1-.949.85h-12a3.712,3.712,0,0,0,3.85,3.3,6.508,6.508,0,0,0,3.5-1.2.871.871,0,0,1,1.25,0l2.5,3a1.076,1.076,0,0,1-.049,1.449,10.174,10.174,0,0,1-7.4,2.851,10.5,10.5,0,0,1-.1-21Zm2.45,7.7a2.7,2.7,0,0,0-2.65-2.351,2.787,2.787,0,0,0-2.7,2.351Z" fill="#c7c7d2"/>
      <path id="Path_1657" data-name="Path 1657" d="M255.146,419.106h-1.3a.94.94,0,0,1-.9-.95v-4.45a.909.909,0,0,1,.9-.951h1.3V407.2a.984.984,0,0,1,.95-.951h5.351a.941.941,0,0,1,.9.951v5.55h3.7a.92.92,0,0,1,.95.951v4.45a.949.949,0,0,1-.95.95h-3.7v6.25c0,1.1.75,1.2,1.35,1.2a9.685,9.685,0,0,0,1.95-.351.877.877,0,0,1,1.1.65l1.1,4.151a.994.994,0,0,1-.65,1.15,25.749,25.749,0,0,1-6.051,1.1c-3.8,0-6-2.4-6-6.95Z" fill="#c7c7d2"/>
      <path id="Path_1658" data-name="Path 1658" d="M280.8,412.255a9.313,9.313,0,0,1,7.5,3.6.994.994,0,0,1-.25,1.4l-3,2.851a.91.91,0,0,1-1.1-.1,3.966,3.966,0,0,0-6.9,2.751,3.94,3.94,0,0,0,3.9,4.051,4.316,4.316,0,0,0,3.4-1.55.819.819,0,0,1,1.1-.2l3,2.6c.45.4.7.9.35,1.4a8.964,8.964,0,0,1-8.05,4.2A10.648,10.648,0,0,1,270,422.756,10.758,10.758,0,0,1,280.8,412.255Z" fill="#c7c7d2"/>
      <path id="Path_1659" data-name="Path 1659" d="M292.546,398.7a.984.984,0,0,1,.95-.951h5.55a.984.984,0,0,1,.95.951v14.7a10.633,10.633,0,0,1,4.65-1.15c6.3,0,9.551,4.951,9.551,10.5v9.051a.983.983,0,0,1-.95.95h-5.3a.949.949,0,0,1-.95-.95v-9.151a3.683,3.683,0,0,0-3.649-3.95c-1.6,0-3.351.9-3.351,3.95v9.151c0,.65-.25.95-1.1.95h-5.4a.983.983,0,0,1-.95-.95Z" fill="#c7c7d2"/>
      <path id="Path_1660" data-name="Path 1660" d="M318.6,413.706a.95.95,0,0,1,.95-.951h5.35a.95.95,0,0,1,.95.951v9.25c0,2.051,1.15,3.851,3.2,3.851,1.95,0,3-1.851,3-3.551v-9.55c0-.8.55-.951,1.05-.951h5.1a.949.949,0,0,1,.949.951v18.1a.983.983,0,0,1-.949.95h-2.35a1.1,1.1,0,0,1-.951-.7l-.75-1.85a8.51,8.51,0,0,1-6.75,3.05c-5.951,0-8.8-4.8-8.8-10.5Z" fill="#c7c7d2"/>
      <path id="Path_1661" data-name="Path 1661" d="M352,446.808a.983.983,0,0,1-.95.95H345.5a.983.983,0,0,1-.95-.95v-33.1a.984.984,0,0,1,.95-.951h2.35c.5,0,.85.451,1.05,1l.6,1.651a8.652,8.652,0,0,1,6.7-3.151c5.651,0,9.9,4.75,9.9,10.5,0,7.051-4.6,10.5-9.951,10.5a10.1,10.1,0,0,1-4.15-.95Zm3.2-20a3.96,3.96,0,0,0,4.05-4,4.013,4.013,0,0,0-4.05-4.1,3.972,3.972,0,0,0-4,4.1A3.919,3.919,0,0,0,355.2,426.807Z" fill="#c7c7d2"/>
    </g>
  </g>
</svg>
